<?xml version="1.0" standalone="no"?>
<!DOCTYPE svg PUBLIC "-//W3C//DTD SVG 20010904//EN"
 "http://www.w3.org/TR/2001/REC-SVG-20010904/DTD/svg10.dtd">
<svg version="1.0" xmlns="http://www.w3.org/2000/svg"
 width="700.000000pt" height="700.000000pt" viewBox="0 0 700.000000 700.000000"
 preserveAspectRatio="xMidYMid meet">
<metadata>
Created by potrace 1.14, written by Peter Selinger 2001-2017
</metadata>
<g transform="translate(0.000000,700.000000) scale(0.100000,-0.100000)"
fill="#000000" stroke="none">
<path d="M2708 5535 c-2 -1 -43 -6 -92 -9 -247 -19 -508 -109 -734 -253 -61
-39 -54 -33 -147 -110 -189 -155 -334 -341 -439 -563 -40 -86 -92 -226 -102
-273 -2 -10 -5 -26 -8 -35 -36 -120 -55 -414 -36 -559 3 -29 4 -56 1 -60 -3
-5 -33 -21 -66 -37 -197 -93 -385 -278 -484 -475 -42 -82 -88 -234 -102 -330
-11 -78 -8 -271 5 -331 21 -95 33 -135 63 -210 102 -249 285 -444 523 -557
103 -49 172 -70 325 -98 40 -7 4407 -8 4465 0 290 37 540 263 611 555 17 72
21 260 7 315 -3 11 -11 40 -18 64 -29 108 -108 238 -192 316 -108 101 -203
153 -343 187 -49 12 -91 22 -93 23 -1 1 9 22 22 46 67 119 122 300 142 464 14
111 0 336 -25 423 -5 18 -9 33 -9 35 3 8 -38 130 -68 198 -115 270 -330 501
-593 637 -124 64 -270 115 -370 128 -25 3 -64 9 -86 13 -61 11 -261 6 -345 -8
-146 -25 -285 -71 -394 -129 l-48 -26 -42 49 c-321 388 -737 592 -1243 609
-46 2 -84 2 -85 1z m395 -1182 c45 -14 134 -72 149 -97 3 -6 16 -22 27 -35 30
-34 62 -127 66 -189 8 -141 -71 -284 -189 -344 -23 -11 -43 -24 -46 -28 -6
-10 -5 -278 1 -285 3 -2 26 2 52 10 37 11 128 14 414 15 360 0 367 1 407 23
57 32 86 91 86 176 l0 66 -49 24 c-63 29 -125 95 -159 169 -23 49 -27 70 -27
153 0 88 2 100 34 162 38 75 86 124 159 161 53 27 141 46 181 40 80 -12 99
-18 143 -40 216 -110 263 -412 89 -583 -26 -25 -66 -55 -89 -66 l-42 -20 -1
-70 c0 -38 -2 -81 -5 -95 -18 -116 -95 -229 -196 -289 -83 -50 -117 -53 -513
-55 -317 -2 -374 -4 -400 -18 -71 -37 -87 -77 -89 -213 l-1 -112 53 -28 c149
-78 224 -270 170 -435 -43 -134 -170 -234 -312 -247 -256 -22 -453 231 -371
478 32 94 88 160 184 214 l36 21 0 422 1 423 -56 31 c-182 101 -239 351 -120
523 58 83 127 129 225 150 67 14 117 11 188 -12z"/>
<path d="M2923 4110 c-40 -24 -54 -50 -55 -100 -2 -127 168 -166 226 -52 15
30 13 80 -4 112 -16 29 -69 60 -105 60 -16 0 -44 -9 -62 -20z"/>
<path d="M4129 4115 c-30 -16 -59 -70 -59 -110 0 -88 103 -144 181 -98 31 19
59 68 59 105 0 87 -103 145 -181 103z"/>
<path d="M2932 2573 c-63 -30 -82 -117 -40 -179 31 -46 102 -61 153 -34 49 27
73 99 51 150 -12 29 -51 69 -69 72 -45 5 -70 3 -95 -9z"/>
</g>
</svg>
