<svg width="36" height="23" viewBox="0 0 36 23" fill="none" xmlns="http://www.w3.org/2000/svg">
<path fill-rule="evenodd" clip-rule="evenodd" d="M21.2904 4.13849C22.3772 3.51761 23.6355 3.1628 24.9767 3.1628C29.0868 3.1628 32.4186 6.49463 32.4186 10.6047C32.4186 11.9675 32.0522 13.2448 31.4126 14.3435C33.542 14.5399 35.2093 16.331 35.2093 18.5116C35.2093 20.8235 33.3351 22.6977 31.0233 22.6977C30.866 22.6977 30.7108 22.689 30.5581 22.6721V22.6977H6.83721H6.37209V22.6801C3.25002 22.4426 0.790695 19.8341 0.790695 16.6512C0.790695 14.0985 2.37252 11.9153 4.60943 11.0283C4.54499 10.5863 4.51162 10.1343 4.51162 9.67443C4.51162 4.53689 8.67642 0.372101 13.8139 0.372101C16.8777 0.372101 19.5955 1.85322 21.2904 4.13849ZM20.1761 8.0029C19.9795 8.33 19.8755 8.70556 19.8754 9.08858C19.8752 9.52073 20.0073 9.94224 20.2536 10.2951C20.4998 10.648 20.848 10.9149 21.2502 11.059V11.642C21.2502 11.8883 21.1537 12.1245 20.9817 12.2986C20.8098 12.4727 20.5767 12.5705 20.3336 12.5705H16.6673C16.3518 12.5701 16.0397 12.6359 15.7506 12.7636V11.059C16.2093 10.8946 16.5959 10.5714 16.842 10.1463C17.0882 9.72118 17.1781 9.2217 17.0958 8.73594C17.0136 8.25017 16.7645 7.80958 16.3925 7.49191C16.0206 7.17425 15.5497 7.00001 15.0632 7.00001C14.5768 7.00001 14.1059 7.17425 13.7339 7.49191C13.362 7.80958 13.1128 8.25017 13.0306 8.73594C12.9483 9.2217 13.0382 9.72118 13.2844 10.1463C13.5305 10.5714 13.9171 10.8946 14.3758 11.059V15.9392C13.9169 16.1035 13.53 16.4268 13.2837 16.8521C13.0373 17.2774 12.9474 17.7772 13.0297 18.2631C13.112 18.7491 13.3612 19.19 13.7333 19.5078C14.1054 19.8257 14.5764 20 15.0632 20C15.5499 20 16.021 19.8257 16.3931 19.5078C16.7652 19.19 17.0145 18.7491 17.0968 18.2631C17.1791 17.7772 17.0891 17.2774 16.8428 16.8521C16.5964 16.4268 16.2095 16.1035 15.7506 15.9392V14.8918C15.7506 14.6456 15.8472 14.4094 16.0191 14.2353C16.191 14.0612 16.4242 13.9634 16.6673 13.9634H20.3336C20.9414 13.9634 21.5242 13.7187 21.9539 13.2834C22.3837 12.8481 22.6251 12.2577 22.6251 11.642V11.059C22.9815 10.9312 23.2964 10.7067 23.5355 10.41C23.7745 10.1133 23.9285 9.75572 23.9804 9.37642C24.0324 8.99702 23.9804 8.61049 23.8302 8.25905C23.6799 7.90761 23.4372 7.60475 23.1286 7.38358C22.8199 7.16241 22.4572 7.03148 22.0801 7.00505C21.7029 6.97863 21.3257 7.05769 20.99 7.23368C20.6542 7.40967 20.3727 7.67569 20.1761 8.0029ZM14.5771 9.58104C14.4482 9.45044 14.3758 9.27324 14.3758 9.08858C14.3758 8.90393 14.4482 8.72673 14.5771 8.59613C14.706 8.46553 14.8809 8.39217 15.0632 8.39217C15.2455 8.39217 15.4204 8.46553 15.5493 8.59613C15.6783 8.72673 15.7506 8.90393 15.7506 9.08858C15.7506 9.27324 15.6783 9.45044 15.5493 9.58104C15.4204 9.71163 15.2455 9.78499 15.0632 9.78499C14.8809 9.78499 14.706 9.71163 14.5771 9.58104ZM21.4516 8.59613C21.5805 8.46553 21.7553 8.39217 21.9377 8.39217C22.12 8.39217 22.2949 8.46553 22.4238 8.59613C22.5526 8.72673 22.6251 8.90393 22.6251 9.08858C22.6251 9.27324 22.5526 9.45044 22.4238 9.58104C22.2949 9.71163 22.12 9.78499 21.9377 9.78499C21.7553 9.78499 21.5805 9.71163 21.4516 9.58104C21.3226 9.45044 21.2502 9.27324 21.2502 9.08858C21.2502 8.90393 21.3226 8.72673 21.4516 8.59613ZM14.5771 17.4171C14.706 17.2865 14.8809 17.2132 15.0632 17.2132C15.2455 17.2132 15.4204 17.2865 15.5493 17.4171C15.6783 17.5477 15.7506 17.7248 15.7506 17.9096C15.7506 18.0942 15.6783 18.2713 15.5493 18.4019C15.4204 18.5325 15.2455 18.6059 15.0632 18.6059C14.8809 18.6059 14.706 18.5325 14.5771 18.4019C14.4482 18.2713 14.3758 18.0942 14.3758 17.9096C14.3758 17.7248 14.4482 17.5477 14.5771 17.4171Z" fill="white"/>
</svg>

