<svg width="1162" height="1078" viewBox="0 0 1162 1078" fill="none" xmlns="http://www.w3.org/2000/svg">
<path opacity="0.86" d="M16.9252 417.283C86.8412 95.8319 377.261 17.0921 587.2 1.73313C888.685 -20.3103 1210.03 168.606 1156.01 529.6C1116.44 793.708 985.399 1088.1 550.189 1077.73C250.544 1070.6 -78.947 857.813 16.9252 417.283Z" fill="url(#paint0_linear_14_1747)"/>
<path opacity="0.4" d="M279.7 537.3C279.7 541.8 279.8 546.3 280.1 550.5C237.1 583.2 204 653.3 204 715C204 782.2 243.3 813.9 291.8 785.9C291.9 785.8 292 785.8 292.1 785.7L596.8 610C596.9 609.9 597 609.9 597.2 609.8C651.6 578.3 695.8 491.6 695.8 416.1C695.8 345.4 657 309.5 607.3 331.2C601.2 282.7 568.7 261.8 529.5 284.5C510.7 295.4 493.4 314.5 479.9 337.5C460.3 308.3 426.9 301 389.1 322.8C328.7 357.6 279.7 453.7 279.7 537.3Z" fill="url(#paint1_linear_14_1747)"/>
<path opacity="0.07" d="M229.7 489.3C229.7 493.8 229.8 498.3 230.1 502.5C187.2 535.3 154 605.4 154 667.1C154 734.3 193.3 766 241.8 738C241.9 737.9 242 737.9 242.1 737.8L546.8 562C546.9 561.9 547 561.9 547.2 561.8C601.6 530.3 645.8 443.6 645.8 368.1C645.8 297.4 607 261.5 557.3 283.2C551.2 234.7 518.7 213.8 479.5 236.5C460.7 247.4 443.4 266.5 429.9 289.5C410.3 260.3 376.9 253 339.1 274.8C278.7 309.6 229.7 405.7 229.7 489.3Z" fill="url(#paint2_linear_14_1747)"/>
<path opacity="0.2" d="M762.1 622.899L808.5 596.099V580.399L762.1 607.199C758.3 609.399 752.8 613.799 748.1 620.599C743 627.899 739.4 637.099 739.4 647.099C739.4 658.099 742.2 664.399 747.6 666.199C752.6 667.899 758.5 664.999 762.1 662.899L781.2 651.899L781.3 651.799C782.9 650.799 785.5 649.899 787.6 650.499C789.3 650.999 791.2 652.699 791.2 658.799C791.2 664.899 789.3 668.699 787.7 670.899C785.7 673.699 783.1 675.699 781.5 676.499L781.3 676.599L723 710.299V725.999L781 692.499C785 690.399 790.7 685.999 795.7 678.999C801.1 671.399 804.9 661.699 804.9 650.899C804.9 640.199 801.2 634.699 795.9 633.199C790.9 631.799 785.2 633.799 781.2 636.299L762.1 647.299C759.4 648.899 757.3 649.599 756 649.099C755 648.799 753 647.299 753 639.299C753 634.199 754.7 630.799 756.2 628.499C758.1 625.799 760.6 623.799 762.1 622.899Z" fill="white"/>
<path d="M798.5 592.2C798.5 605.1 806.1 611.2 815.4 605.9C824.7 600.5 832.3 585.7 832.3 572.7C832.3 559.8 824.7 553.7 815.4 559C806.1 564.4 798.5 579.3 798.5 592.2Z" fill="#F2994A"/>
<path d="M699.5 731.2C699.5 744.1 707.1 750.2 716.4 744.9C725.7 739.5 733.3 724.7 733.3 711.7C733.3 698.8 725.7 692.7 716.4 698C707.1 703.4 699.5 718.3 699.5 731.2Z" fill="#F2994A"/>
<path opacity="0.07" d="M619.6 399L319.8 572V730.7L619.7 557.6L619.6 399Z" fill="url(#paint3_linear_14_1747)"/>
<path opacity="0.3" d="M659.6 419L359.8 592V750.7L659.7 577.6L659.6 419Z" fill="url(#paint4_linear_14_1747)"/>
<path d="M632.8 513.5C632.8 526.3 625.2 541 615.9 546.4C606.6 551.8 599 545.8 599 533C599 520.2 606.6 505.5 615.9 500.1C625.2 494.7 632.8 500.7 632.8 513.5Z" fill="#F2994A"/>
<path opacity="0.15" d="M590.5 538.2C590.5 544.1 587 551 582.6 553.5C578.3 556 574.8 553.2 574.8 547.3C574.8 541.4 578.3 534.5 582.7 532C587 529.5 590.5 532.3 590.5 538.2Z" fill="white"/>
<path opacity="0.15" d="M566.4 552.1C566.4 558 562.9 564.9 558.5 567.4C554.2 569.9 550.7 567.1 550.7 561.2C550.7 555.3 554.2 548.4 558.6 545.9C562.9 543.4 566.4 546.2 566.4 552.1Z" fill="white"/>
<path opacity="0.15" d="M435.5 579.1V669.4L447.3 662.6V572.3L435.5 579.1Z" fill="white"/>
<path opacity="0.15" d="M409.7 594.1V684.4L421.5 677.6V587.3L409.7 594.1Z" fill="white"/>
<path opacity="0.15" d="M383.8 609.1V699.4L395.6 692.6V602.3L383.8 609.1Z" fill="white"/>
<path opacity="0.07" d="M619.7 615.899L319.8 788.999V947.699L619.7 774.599V615.899Z" fill="url(#paint5_linear_14_1747)"/>
<path opacity="0.3" d="M659.7 636.899L359.8 809.999V968.699L659.7 795.599V636.899Z" fill="url(#paint6_linear_14_1747)"/>
<path d="M632.8 731.4C632.8 744.2 625.2 758.9 615.9 764.3C606.6 769.7 599 763.7 599 750.9C599 738.1 606.6 723.4 615.9 718C625.2 712.6 632.8 718.6 632.8 731.4Z" fill="#F2994A"/>
<path opacity="0.15" d="M590.5 756.2C590.5 762.1 587 769 582.6 771.5C578.3 774 574.8 771.2 574.8 765.3C574.8 759.4 578.3 752.5 582.7 750C587 747.5 590.5 750.2 590.5 756.2Z" fill="white"/>
<path opacity="0.15" d="M566.4 770.1C566.4 776 562.9 782.9 558.5 785.4C554.2 787.9 550.7 785.1 550.7 779.2C550.7 773.3 554.2 766.4 558.6 763.9C562.9 761.3 566.5 764.1 566.4 770.1Z" fill="white"/>
<path opacity="0.15" d="M435.5 800.1V890.4L447.3 883.6V793.3L435.5 800.1Z" fill="white"/>
<path opacity="0.15" d="M409.7 815.1V905.4L421.5 898.6V808.3L409.7 815.1Z" fill="white"/>
<path opacity="0.15" d="M383.8 830.1V920.4L395.6 913.6V823.3L383.8 830.1Z" fill="white"/>
<path opacity="0.3" d="M925.9 183.899L739.1 291.699V637.999L926 530.099L925.9 183.899Z" fill="url(#paint7_linear_14_1747)"/>
<path d="M810.6 309.3C810.6 326.6 820.6 334.8 832.9 327.6C845.2 320.4 855.2 300.6 855.2 283.3C855.2 266 845.2 257.8 832.9 265C820.6 272.2 810.6 292 810.6 309.3Z" fill="#F2C94C"/>
<path d="M832.9 341.5C852.8 329.9 869.2 340.8 872.1 365.8C872.6 370.1 869.3 375.9 865.3 378.2L800.4 416.1C796.4 418.4 793.1 416.6 793.6 411.6C796.6 383.1 813.1 353.1 832.9 341.5Z" fill="#F2C94C"/>
<path opacity="0.15" d="M888.5 408.5L777.1 472.8V486.4L888.5 422.1V408.5Z" fill="white"/>
<path opacity="0.15" d="M877.199 442L788.899 492.9V506.5L877.199 455.6V442Z" fill="white"/>
<path d="M854.7 499.2L984.7 424.1V462.8L854.7 537.9V499.2Z" fill="#F2C94C"/>
<path opacity="0.2" d="M698.799 140L670.999 194.6C667.199 202.1 667.799 209.6 672.399 211.4C676.999 213.2 683.799 208.5 687.599 201L687.899 200.3V260.9C687.899 267.8 692.699 270.6 698.699 267.2C704.699 263.7 709.499 255.4 709.499 248.5V187.9L709.799 188.2C713.599 191.3 720.499 188.1 724.999 181C729.599 173.9 730.199 165.7 726.399 162.6L698.799 140Z" fill="url(#paint8_linear_14_1747)"/>
<path opacity="0.2" d="M698.8 946.2L726.6 891.6C730.4 884.1 729.8 876.6 725.2 874.8C720.6 873 713.8 877.7 710 885.2L709.7 885.9V825.3C709.7 818.4 704.9 815.6 698.9 819C692.9 822.5 688.1 830.8 688.1 837.7V898.3L687.8 898C684 894.9 677.1 898.1 672.6 905.2C668 912.3 667.4 920.5 671.2 923.6L698.8 946.2Z" fill="url(#paint9_linear_14_1747)"/>
<defs>
<linearGradient id="paint0_linear_14_1747" x1="581" y1="-1.79372e-05" x2="581" y2="1078" gradientUnits="userSpaceOnUse">
<stop stop-color="#1C3FA8"/>
<stop offset="0.4293" stop-color="#1759C2"/>
<stop offset="1" stop-color="#107CE6"/>
</linearGradient>
<linearGradient id="paint1_linear_14_1747" x1="221.888" y1="346.334" x2="531.316" y2="639.833" gradientUnits="userSpaceOnUse">
<stop stop-color="white"/>
<stop offset="1" stop-color="white" stop-opacity="0"/>
</linearGradient>
<linearGradient id="paint2_linear_14_1747" x1="171.878" y1="298.334" x2="481.305" y2="591.833" gradientUnits="userSpaceOnUse">
<stop stop-color="white"/>
<stop offset="1" stop-color="white" stop-opacity="0"/>
</linearGradient>
<linearGradient id="paint3_linear_14_1747" x1="475.818" y1="411.691" x2="464.644" y2="692.409" gradientUnits="userSpaceOnUse">
<stop stop-color="white"/>
<stop offset="1" stop-color="white" stop-opacity="0"/>
</linearGradient>
<linearGradient id="paint4_linear_14_1747" x1="515.82" y1="431.691" x2="504.646" y2="712.409" gradientUnits="userSpaceOnUse">
<stop stop-color="white"/>
<stop offset="1" stop-color="white" stop-opacity="0"/>
</linearGradient>
<linearGradient id="paint5_linear_14_1747" x1="475.84" y1="628.624" x2="464.666" y2="909.342" gradientUnits="userSpaceOnUse">
<stop stop-color="white"/>
<stop offset="1" stop-color="white" stop-opacity="0"/>
</linearGradient>
<linearGradient id="paint6_linear_14_1747" x1="515.842" y1="649.623" x2="504.668" y2="930.342" gradientUnits="userSpaceOnUse">
<stop stop-color="white"/>
<stop offset="1" stop-color="white" stop-opacity="0"/>
</linearGradient>
<linearGradient id="paint7_linear_14_1747" x1="719.058" y1="214.334" x2="884.968" y2="501.775" gradientUnits="userSpaceOnUse">
<stop stop-color="white"/>
<stop offset="1" stop-color="white" stop-opacity="0"/>
</linearGradient>
<linearGradient id="paint8_linear_14_1747" x1="679.005" y1="195.075" x2="729.725" y2="223.35" gradientUnits="userSpaceOnUse">
<stop stop-color="white"/>
<stop offset="1" stop-color="white" stop-opacity="0"/>
</linearGradient>
<linearGradient id="paint9_linear_14_1747" x1="718.624" y1="891.161" x2="667.904" y2="862.887" gradientUnits="userSpaceOnUse">
<stop stop-color="white"/>
<stop offset="1" stop-color="white" stop-opacity="0"/>
</linearGradient>
</defs>
</svg>
